<?xml version="1.0" encoding="utf-8"?>
<!-- Generator: Adobe Illustrator 26.0.1, SVG Export Plug-In . SVG Version: 6.00 Build 0)  -->
<svg version="1.1" id="Layer_2" xmlns="http://www.w3.org/2000/svg" xmlns:xlink="http://www.w3.org/1999/xlink" x="0px" y="0px"
	 viewBox="0 0 568.16 792" style="enable-background:new 0 0 568.16 792;" xml:space="preserve">
<style type="text/css">
	.st0{fill:#DEEBD3;}
	.st1{fill:#F1F7EA;}
	.st2{fill:#C0DA76;}
	.st3{fill:#CEE198;}
	.st4{fill:#70BE46;}
	.st5{fill:#156D39;}
	.st6{fill:#34773C;}
	.st7{fill:#479646;}
	.st8{fill:#31793D;}
	.st9{fill:#71AC44;}
	.st10{fill:#71BF46;}
	.st11{fill:#AAD05D;}
</style>
<polygon class="st0" points="440.96,291.84 451.96,301.93 451.96,461.91 430.03,461.91 430.03,301.93 "/>
<path class="st1" d="M142.7,62.69c4.66,0,9.19,0.55,13.55,1.55c13.44-14.16,32.43-23,53.49-23c31.81,0,58.92,20.13,69.27,48.35
	c5.13-1.87,10.66-2.89,16.44-2.89c26.53,0,48.04,21.51,48.04,48.04c0,26.53-21.51,48.04-48.04,48.04c-13.56,0-25.8-5.63-34.53-14.66
	c-13.27,12.79-31.3,20.67-51.18,20.67c-14.94,0-28.83-4.45-40.45-12.09c-8.02,3.96-17.04,6.2-26.59,6.2
	c-33.19,0-60.1-26.91-60.1-60.1C82.6,89.6,109.5,62.69,142.7,62.69z"/>
<polygon class="st0" points="112.42,289 118.9,289 122.55,270.83 129.52,270.83 133.6,256.45 149.01,256.45 152.93,270.83 
	159.46,270.83 162.73,289 168.61,289 168.61,461.27 112.42,461.27 "/>
<polygon class="st2" points="61.08,461.91 146.85,461.91 146.85,323.93 124.88,291.84 87.66,291.84 61.08,324.85 "/>
<polygon class="st3" points="173.01,263.5 209.29,231.32 209.29,205.18 238.64,182.26 238.64,461.91 173.01,461.91 "/>
<polygon class="st2" points="254.35,146.49 263.44,146.49 268.56,113.23 278.35,113.23 284.08,86.89 305.7,86.89 311.2,113.23 
	320.37,113.23 324.96,146.49 333.21,146.49 333.21,461.91 254.35,461.91 "/>
<polygon class="st3" points="352.93,277.16 398.02,217.56 430.03,253.78 430.03,461.62 352.93,461.62 "/>
<polygon class="st4" points="200.78,461.91 421.38,461.91 421.38,349.8 365.96,302.9 258.29,302.9 200.78,352.34 "/>
<path class="st0" d="M471.75,139.54c-2.49,0-4.91,0.29-7.24,0.83c-7.18-7.57-17.33-12.29-28.59-12.29c-17,0-31.49,10.76-37.03,25.84
	c-2.74-1-5.7-1.54-8.79-1.54c-14.18,0-25.68,11.5-25.68,25.68c0,14.18,11.5,25.68,25.68,25.68c7.25,0,13.79-3.01,18.46-7.84
	c7.09,6.84,16.73,11.05,27.36,11.05c7.99,0,15.41-2.38,21.62-6.46c4.28,2.12,9.11,3.31,14.21,3.31c17.74,0,32.13-14.38,32.13-32.13
	C503.88,153.93,489.49,139.54,471.75,139.54z"/>
<path class="st2" d="M26.67,477c-0.03,1.66-0.06,3.33-0.06,5c0,143.59,106.88,260,250.47,260s250.47-116.41,250.47-260
	c0-1.67-0.03-3.34-0.06-5H26.67z"/>
<g>
	<circle class="st5" cx="145.08" cy="94.58" r="20.44"/>
</g>
<g>
	<path class="st5" d="M145.08,70.2c-1.1,0-2-0.9-2-2V53.96c0-1.1,0.9-2,2-2s2,0.9,2,2V68.2C147.08,69.31,146.18,70.2,145.08,70.2z"
		/>
</g>
<g>
	<path class="st5" d="M145.08,137.2c-1.1,0-2-0.9-2-2v-14.25c0-1.1,0.9-2,2-2s2,0.9,2,2v14.25
		C147.08,136.31,146.18,137.2,145.08,137.2z"/>
</g>
<g>
	<path class="st5" d="M185.7,96.58h-14.25c-1.1,0-2-0.9-2-2s0.9-2,2-2h14.25c1.1,0,2,0.9,2,2S186.81,96.58,185.7,96.58z"/>
</g>
<g>
	<path class="st5" d="M118.7,96.58h-14.25c-1.1,0-2-0.9-2-2s0.9-2,2-2h14.25c1.1,0,2,0.9,2,2S119.81,96.58,118.7,96.58z"/>
</g>
<g>
	<path class="st5" d="M163.73,77.93c-0.51,0-1.02-0.2-1.41-0.59c-0.78-0.78-0.78-2.05,0-2.83l10.07-10.07
		c0.78-0.78,2.05-0.78,2.83,0c0.78,0.78,0.78,2.05,0,2.83l-10.07,10.07C164.76,77.73,164.24,77.93,163.73,77.93z"/>
</g>
<g>
	<path class="st5" d="M116.35,125.31c-0.51,0-1.02-0.2-1.41-0.59c-0.78-0.78-0.78-2.05,0-2.83l10.07-10.07
		c0.78-0.78,2.05-0.78,2.83,0c0.78,0.78,0.78,2.05,0,2.83l-10.07,10.07C117.38,125.11,116.87,125.31,116.35,125.31z"/>
</g>
<g>
	<path class="st5" d="M173.81,125.31c-0.51,0-1.02-0.2-1.41-0.59l-10.07-10.07c-0.78-0.78-0.78-2.05,0-2.83
		c0.78-0.78,2.05-0.78,2.83,0l10.07,10.07c0.78,0.78,0.78,2.05,0,2.83C174.83,125.11,174.32,125.31,173.81,125.31z"/>
</g>
<g>
	<path class="st5" d="M126.43,77.93c-0.51,0-1.02-0.2-1.41-0.59l-10.07-10.07c-0.78-0.78-0.78-2.05,0-2.83
		c0.78-0.78,2.05-0.78,2.83,0l10.07,10.07c0.78,0.78,0.78,2.05,0,2.83C127.45,77.73,126.94,77.93,126.43,77.93z"/>
</g>
<circle class="st6" cx="213.04" cy="277.16" r="5.3"/>
<path class="st6" d="M210.86,284.18l-5.03,177.73h15.61l-5.29-177.73C216.15,284.18,213.53,285.27,210.86,284.18z"/>
<path class="st6" d="M219.85,278.96c0,0,43.69-0.92,76.89-10.5c0,0-37.92-8.79-76.89,6.04C219.85,274.5,220.77,277,219.85,278.96z"
	/>
<path class="st6" d="M211.1,270.4c0,0-23.2-37.04-48.45-60.62c0,0,11.9,37.06,44.62,62.91C207.27,272.68,208.94,270.62,211.1,270.4z
	"/>
<path class="st6" d="M207.09,280.92c0,0-29.06,32.65-44.63,63.49c0,0,32.24-21.81,47.9-60.45
	C210.36,283.96,207.91,282.94,207.09,280.92z"/>
<circle class="st7" cx="282.52" cy="316.53" r="4.17"/>
<path class="st7" d="M280.8,322.05l-3.96,139.86h12.28l-4.16-139.86C284.96,322.05,282.91,322.91,280.8,322.05z"/>
<path class="st7" d="M287.88,317.94c0,0,34.38-0.72,60.51-8.26c0,0-29.84-6.92-60.51,4.75C287.88,314.43,288.6,316.4,287.88,317.94z
	"/>
<path class="st7" d="M280.99,311.2c0,0-18.26-29.15-38.13-47.71c0,0,9.37,29.17,35.11,49.51C277.98,313,279.29,311.38,280.99,311.2z
	"/>
<path class="st7" d="M277.84,319.49c0,0-22.87,25.69-35.12,49.96c0,0,25.37-17.16,37.69-47.57
	C280.41,321.88,278.48,321.07,277.84,319.49z"/>
<circle class="st8" cx="401.33" cy="346.49" r="3.31"/>
<path class="st8" d="M399.97,350.87l-3.15,111.03h9.75l-3.3-111.03C403.27,350.87,401.64,351.56,399.97,350.87z"/>
<path class="st8" d="M406.02,348.85c0,0,26.44,6.83,48.02,6.68c0,0-21.32-11.7-47.27-9.37C406.77,346.16,406.9,347.82,406.02,348.85
	z"/>
<path class="st8" d="M402.2,342.21c0,0-7.69-26.2-18.89-44.65c0,0,0.89,24.3,16.2,45.38C399.51,342.94,400.87,341.98,402.2,342.21z"
	/>
<path class="st8" d="M397.62,348.84c0,0-18.15,20.39-27.88,39.67c0,0,20.14-13.62,29.92-37.77
	C399.66,350.74,398.13,350.1,397.62,348.84z"/>
<circle class="st9" cx="79.3" cy="346.49" r="3.31"/>
<path class="st9" d="M77.93,350.87l-3.15,111.03h9.75l-3.3-111.03C81.24,350.87,79.61,351.56,77.93,350.87z"/>
<path class="st9" d="M82.81,350.39c0,0,22.15,15.97,42.31,23.67c0,0-15.62-18.64-40.63-25.9C84.48,348.16,84,349.75,82.81,350.39z"
	/>
<path class="st9" d="M81.66,342.82c0,0,2.35-27.2-1.38-48.46c0,0-8,22.97-1.39,48.17C78.89,342.52,80.5,342.12,81.66,342.82z"/>
<path class="st9" d="M74.98,347.33c0,0-24.32,12.41-40.39,26.83c0,0,23.72-5.37,41.6-24.32C76.19,349.84,75,348.69,74.98,347.33z"/>
<path class="st5" d="M237.09,427.62c0,0,9.37,15.74,7.74,34.29h7.88c0,0-4.03-20.44,10.73-34.29L261,426.4c0,0-3.53,5.71-5.03,5.16
	c-1.49-0.54-2.45-4.89-1.9-6.38c0,0-2.04-0.95-3.8,0c0,0,3.94,11.41-1.9,11.82s-8.01-10.46-8.01-10.46S238.31,425.99,237.09,427.62z
	"/>
<path class="st5" d="M245.65,422.73c7.04-1.98,16.84,2.58,20.1,3.94s9.84,1.62,11.09-3.53c1.24-5.15,0.46-9.37-5.25-10.6
	c0,0,8.67-1.9,8.82-13.04s-11.53-22.69-25.25-13.45c0,0-5.93-18.26-23.5-7.74c-12.49,7.47-5.3,20.24-5.3,20.24
	s-13.1-1.09-12.73,14.4s10.69,15.81,15.45,14.56C233.83,426.26,234.51,425.85,245.65,422.73z"/>
<path class="st5" d="M360.98,432.82c0,0,7.95,13.35,6.57,29.09h6.68c0,0-3.42-17.34,9.1-29.09l-2.07-1.04c0,0-3,4.84-4.26,4.38
	c-1.27-0.46-2.07-4.15-1.61-5.42c0,0-1.73-0.81-3.23,0c0,0,3.34,9.68-1.61,10.03c-4.96,0.35-6.8-8.87-6.8-8.87
	S362.02,431.44,360.98,432.82z"/>
<path class="st5" d="M368.25,428.67c5.98-1.68,14.29,2.19,17.06,3.34c2.77,1.15,8.35,1.37,9.41-3s0.39-7.95-4.45-8.99
	c0,0,7.35-1.61,7.48-11.06s-9.78-19.24-21.42-11.41c0,0-5.03-15.49-19.94-6.57c-10.6,6.34-4.49,17.17-4.49,17.17
	s-11.11-0.92-10.8,12.22s9.07,13.41,13.1,12.35C358.22,431.67,358.8,431.32,368.25,428.67z"/>
<path class="st10" d="M30.94,428.58c0,0,9.03,15.16,7.46,33.04h7.59c0,0-3.88-19.69,10.34-33.04l-2.36-1.18c0,0-3.4,5.5-4.84,4.97
	s-2.36-4.71-1.83-6.15c0,0-1.96-0.92-3.67,0c0,0,3.8,11-1.83,11.39s-7.72-10.08-7.72-10.08S32.12,427.01,30.94,428.58z"/>
<path class="st10" d="M39.19,423.86c6.79-1.9,16.23,2.49,19.37,3.8c3.14,1.31,9.49,1.56,10.68-3.4c1.2-4.96,0.44-9.03-5.06-10.21
	c0,0,8.35-1.83,8.49-12.57c0.14-10.73-11.11-21.86-24.33-12.96c0,0-5.71-17.59-22.65-7.46c-12.03,7.2-5.11,19.5-5.11,19.5
	s-12.62-1.05-12.27,13.88c0.36,14.92,10.3,15.23,14.89,14.03C27.8,427.27,28.45,426.87,39.19,423.86z"/>
<polygon class="st3" points="451.96,319.49 466.18,307.65 466.18,282.46 482.68,268.45 499.65,282.46 499.65,307.65 511.57,318.59 
	511.57,461.91 451.96,461.91 "/>
<path class="st11" d="M524.78,438.41c0,0-6.34,10.65-5.24,23.21h-5.33c0,0,2.73-13.83-7.26-23.21l1.66-0.83c0,0,2.39,3.86,3.4,3.49
	c1.01-0.37,1.66-3.31,1.29-4.32c0,0,1.38-0.64,2.57,0c0,0-2.67,7.72,1.29,8c3.95,0.28,5.42-7.08,5.42-7.08
	S523.95,437.31,524.78,438.41z"/>
<path class="st11" d="M518.99,435.1c-4.77-1.34-11.4,1.75-13.61,2.67c-2.21,0.92-6.66,1.1-7.5-2.39s-0.31-6.34,3.55-7.17
	c0,0-5.87-1.29-5.97-8.83c-0.1-7.54,7.81-15.36,17.09-9.1c0,0,4.01-12.36,15.91-5.24c8.45,5.06,3.59,13.7,3.59,13.7
	s8.87-0.74,8.62,9.75s-7.24,10.7-10.46,9.85S526.53,437.21,518.99,435.1z"/>
<polygon class="st8" points="205.82,412.07 158.28,381.91 158.28,369.45 147.2,356.59 135.92,368.67 135.92,382.36 89.09,412.07 
	99.63,412.07 99.63,461.91 194.77,461.91 194.77,412.07 "/>
<polygon class="st5" points="429.7,461.91 498.4,461.91 498.4,367.15 506.45,367.15 463.83,324.53 421.87,366.48 429.26,366.48 "/>
<path class="st5" d="M374.28,246.41c7.79,0.08,10.89-14.52,5.07-14.52c-5.37,0-9.45,8.21-12.24,9.49c-0.15-2.12-0.4-3.52-0.69-3.52
	s-0.54,1.4-0.69,3.52c-2.8-1.29-6.88-9.49-12.24-9.49c-5.82,0-2.72,14.6,5.07,14.52c0,0-8.17,3.71-3.93,9.45
	c4.23,5.75,9.3-0.45,9.45-1.59c0.13-0.98,0.55-2.48,1.74-2.86c0.15,1.52,0.36,2.48,0.6,2.48s0.45-0.95,0.6-2.48
	c1.19,0.38,1.61,1.87,1.74,2.86c0.15,1.13,5.22,7.34,9.45,1.59C382.44,250.12,374.28,246.41,374.28,246.41z"/>
<path class="st5" d="M400.77,161.82c6.88-3.66,2.61-17.96-2.5-15.17c-4.71,2.57-4.37,11.73-6.21,14.2c-1.15-1.79-2.04-2.9-2.29-2.76
	c-0.25,0.14,0.19,1.48,1.08,3.42c-3.07,0.21-10.58-5.04-15.29-2.48c-5.11,2.79,4.6,14.12,11.4,10.32c0,0-5.4,7.16,1.07,10.18
	c6.47,3.02,7.95-4.85,7.54-5.92c-0.36-0.93-0.7-2.44,0.16-3.34c0.86,1.27,1.51,2,1.71,1.89c0.21-0.11-0.06-1.05-0.66-2.46
	c1.23-0.24,2.31,0.87,2.9,1.67c0.68,0.92,8.09,3.94,9.06-3.13C409.72,161.16,400.77,161.82,400.77,161.82z"/>
<path class="st4" d="M334.57,122.23c4.55,1.88,9.81-5.95,6.4-7.33c-3.15-1.26-7.48,2.59-9.42,2.69c0.41-1.28,0.59-2.16,0.43-2.23
	s-0.65,0.69-1.23,1.9c-1.34-1.42-1.8-7.19-4.95-8.46c-3.42-1.37-5.04,7.92-0.45,9.72c0,0-5.67,0.25-4.54,4.62
	c1.13,4.37,5.57,1.93,5.92,1.3c0.31-0.55,0.91-1.32,1.7-1.27c-0.27,0.93-0.37,1.54-0.23,1.6c0.14,0.06,0.49-0.45,0.94-1.31
	c0.61,0.5,0.51,1.48,0.35,2.09c-0.18,0.7,1.33,5.53,5.17,3.16C338.49,126.33,334.57,122.23,334.57,122.23z"/>
<path class="st5" d="M103.23,216.25c4.32-2.87,0.57-12.08-2.64-9.9c-2.96,2.01-2.14,8.06-3.2,9.82c-0.88-1.11-1.54-1.79-1.7-1.68
	c-0.16,0.11,0.23,0.97,0.94,2.2c-2.02,0.34-7.34-2.66-10.3-0.65c-3.21,2.18,3.96,9.07,8.23,6.11c0,0-3.12,5.1,1.37,6.68
	c4.49,1.58,4.96-3.73,4.62-4.41c-0.3-0.59-0.62-1.57-0.11-2.23c0.65,0.78,1.13,1.23,1.26,1.14s-0.11-0.69-0.6-1.59
	c0.8-0.24,1.59,0.43,2.03,0.92c0.51,0.57,5.62,2.09,5.81-2.66C109.12,215.23,103.23,216.25,103.23,216.25z"/>
<path class="st4" d="M132,178.18c6.79,1.41,12.02-10.8,6.93-11.81c-4.69-0.93-9.67,5.54-12.34,6.18c0.24-1.88,0.26-3.14,0.01-3.19
	c-0.25-0.05-0.71,1.13-1.21,2.96c-2.22-1.61-4.37-9.48-9.06-10.41c-5.09-1.01-4.9,12.28,1.92,13.56c0,0-7.78,1.83-5.07,7.58
	c2.71,5.75,8.2,1.21,8.53,0.24c0.28-0.84,0.91-2.07,2.02-2.19c-0.13,1.36-0.11,2.23,0.1,2.27c0.21,0.04,0.56-0.76,0.95-2.06
	c0.98,0.54,1.09,1.91,1.03,2.8c-0.06,1.02,3.29,7.31,7.98,3.02C138.5,182.83,132,178.18,132,178.18z"/>
<path class="st2" d="M57.41,171.52c5.13,3.23,13.14-5.17,9.28-7.55c-3.55-2.19-9.61,1.58-11.98,1.29c0.77-1.47,1.17-2.49,0.98-2.61
	c-0.19-0.12-0.93,0.7-1.89,2.05c-1.33-2-0.68-9.09-4.23-11.29c-3.86-2.38-7.76,8.55-2.57,11.68c0,0-6.92-0.88-6.46,4.65
	c0.46,5.54,6.35,3.5,6.91,2.81c0.49-0.6,1.38-1.42,2.32-1.18c-0.52,1.07-0.77,1.79-0.61,1.89c0.16,0.1,0.69-0.45,1.41-1.4
	c0.64,0.74,0.3,1.9-0.01,2.6c-0.36,0.81,0.46,6.99,5.61,4.91C61.3,177.31,57.41,171.52,57.41,171.52z"/>
<path class="st4" d="M528.85,251.9c3.56,2.48,9.58-3.27,6.89-5.1c-2.47-1.69-6.93,0.81-8.62,0.53c0.6-1.03,0.92-1.75,0.79-1.84
	c-0.13-0.09-0.69,0.47-1.42,1.41c-0.88-1.47-0.19-6.53-2.66-8.22c-2.68-1.83-5.84,5.87-2.23,8.28c0,0-4.93-0.86-4.78,3.12
	c0.15,3.98,4.43,2.71,4.85,2.24c0.37-0.41,1.03-0.97,1.7-0.77c-0.41,0.75-0.61,1.26-0.5,1.33c0.11,0.07,0.51-0.3,1.05-0.95
	c0.43,0.55,0.16,1.37-0.09,1.86c-0.29,0.57,0.1,5.02,3.86,3.7C531.45,256.17,528.85,251.9,528.85,251.9z"/>
</svg>
